<svg width="16" height="10" viewBox="0 0 16 10" fill="none" xmlns="http://www.w3.org/2000/svg">
<path d="M8 3.33269L2.06233 9.14173C1.95168 9.25382 1.81932 9.34322 1.67297 9.40472C1.52663 9.46623 1.36922 9.4986 1.20995 9.49996C1.05068 9.50131 0.892725 9.47162 0.745308 9.41261C0.59789 9.3536 0.46396 9.26646 0.351333 9.15628C0.238706 9.04609 0.149637 8.91506 0.089323 8.77084C0.0290098 8.62661 -0.00133896 8.47208 4.48227e-05 8.31626C0.0014286 8.16044 0.0345192 8.00644 0.0973854 7.86327C0.160251 7.72009 0.251634 7.59059 0.3662 7.48234L7.15193 0.843597C7.37688 0.623592 7.68193 0.5 8 0.5C8.31807 0.5 8.62312 0.623592 8.84807 0.843597L15.6338 7.48234C15.7484 7.59059 15.8397 7.72009 15.9026 7.86327C15.9655 8.00644 15.9986 8.16044 16 8.31626C16.0013 8.47208 15.971 8.62661 15.9107 8.77084C15.8504 8.91506 15.7613 9.04609 15.6487 9.15628C15.536 9.26646 15.4021 9.3536 15.2547 9.41261C15.1073 9.47162 14.9493 9.50131 14.79 9.49996C14.6308 9.4986 14.4734 9.46623 14.327 9.40472C14.1807 9.34322 14.0483 9.25382 13.9377 9.14173L8 3.33269Z" fill="#003C96"/>
</svg>
