<svg width="16" height="9" viewBox="0 0 16 9" fill="none" xmlns="http://www.w3.org/2000/svg">
<path d="M8 6.16731L13.9377 0.358269C14.0483 0.246184 14.1807 0.156781 14.327 0.0952763C14.4734 0.033772 14.6308 0.00139836 14.79 4.43092e-05C14.9493 -0.00130975 15.1073 0.0283829 15.2547 0.0873898C15.4021 0.146397 15.536 0.233536 15.6487 0.343723C15.7613 0.45391 15.8504 0.584939 15.9107 0.729163C15.971 0.873388 16.0013 1.02792 16 1.18374C15.9986 1.33956 15.9655 1.49356 15.9026 1.63673C15.8397 1.77991 15.7484 1.90941 15.6338 2.01766L8.84807 8.6564C8.62312 8.87641 8.31807 9 8 9C7.68193 9 7.37688 8.87641 7.15193 8.6564L0.366202 2.01766C0.251635 1.90941 0.160252 1.77991 0.0973859 1.63673C0.0345198 1.49356 0.00142933 1.33956 4.52903e-05 1.18374C-0.00133875 1.02792 0.0290114 0.873388 0.0893247 0.729163C0.149638 0.584939 0.238707 0.45391 0.351334 0.343723C0.463961 0.233536 0.59789 0.146397 0.745308 0.0873898C0.892726 0.0283829 1.05068 -0.00130975 1.20995 4.43092e-05C1.36922 0.00139836 1.52663 0.033772 1.67297 0.0952763C1.81932 0.156781 1.95168 0.246184 2.06234 0.358269L8 6.16731Z" fill="#003C96"/>
</svg>
