<svg width="54" height="54" viewBox="0 0 54 54" fill="none" xmlns="http://www.w3.org/2000/svg">
<path d="M28.3139 26.9289L23.3639 21.9789C23.2684 21.8866 23.1922 21.7763 23.1398 21.6543C23.0874 21.5323 23.0598 21.401 23.0586 21.2683C23.0575 21.1355 23.0828 21.0038 23.1331 20.8809C23.1833 20.758 23.2576 20.6464 23.3515 20.5525C23.4454 20.4586 23.557 20.3843 23.6799 20.334C23.8028 20.2838 23.9345 20.2585 24.0673 20.2596C24.2001 20.2608 24.3313 20.2883 24.4533 20.3408C24.5753 20.3932 24.6856 20.4693 24.7779 20.5649L30.4349 26.2219C30.6224 26.4094 30.7277 26.6637 30.7277 26.9289C30.7277 27.194 30.6224 27.4483 30.4349 27.6359L24.7779 33.2929C24.6856 33.3884 24.5753 33.4645 24.4533 33.517C24.3313 33.5694 24.2001 33.597 24.0673 33.5981C23.9345 33.5993 23.8028 33.574 23.6799 33.5237C23.557 33.4734 23.4454 33.3991 23.3515 33.3053C23.2576 33.2114 23.1833 33.0997 23.1331 32.9768C23.0828 32.8539 23.0575 32.7222 23.0586 32.5895C23.0598 32.4567 23.0874 32.3255 23.1398 32.2035C23.1922 32.0814 23.2684 31.9711 23.3639 31.8789L28.3139 26.9289Z" fill="#003C96"/>
<rect x="1" y="1" width="52" height="52" stroke="#003C96" stroke-width="2"/>
</svg>
