<svg width="24" height="24" viewBox="0 0 24 24" fill="none" xmlns="http://www.w3.org/2000/svg">
<path d="M13.3139 11.9289L8.36388 6.97886C8.26837 6.88661 8.19219 6.77626 8.13978 6.65426C8.08737 6.53226 8.05979 6.40104 8.05863 6.26826C8.05748 6.13548 8.08278 6.0038 8.13306 5.8809C8.18334 5.75801 8.25759 5.64635 8.35149 5.55246C8.44538 5.45857 8.55703 5.38431 8.67993 5.33403C8.80282 5.28375 8.9345 5.25845 9.06728 5.25961C9.20006 5.26076 9.33128 5.28835 9.45329 5.34075C9.57529 5.39316 9.68564 5.46935 9.77788 5.56486L15.4349 11.2219C15.6224 11.4094 15.7277 11.6637 15.7277 11.9289C15.7277 12.194 15.6224 12.4483 15.4349 12.6359L9.77788 18.2929C9.68564 18.3884 9.57529 18.4645 9.45329 18.517C9.33128 18.5694 9.20006 18.597 9.06728 18.5981C8.9345 18.5993 8.80282 18.574 8.67993 18.5237C8.55703 18.4734 8.44538 18.3991 8.35149 18.3053C8.25759 18.2114 8.18334 18.0997 8.13306 17.9768C8.08278 17.8539 8.05748 17.7222 8.05863 17.5895C8.05979 17.4567 8.08737 17.3255 8.13978 17.2035C8.19219 17.0814 8.26837 16.9711 8.36388 16.8789L13.3139 11.9289Z" fill="white"/>
</svg>
