<svg width="24" height="24" viewBox="0 0 24 24" fill="none" xmlns="http://www.w3.org/2000/svg">
<path d="M10.6861 12.0711L15.6361 17.0211C15.7316 17.1134 15.8078 17.2237 15.8602 17.3457C15.9126 17.4677 15.9402 17.599 15.9414 17.7317C15.9425 17.8645 15.9172 17.9962 15.8669 18.1191C15.8167 18.242 15.7424 18.3536 15.6485 18.4475C15.5546 18.5414 15.443 18.6157 15.3201 18.666C15.1972 18.7162 15.0655 18.7415 14.9327 18.7404C14.7999 18.7392 14.6687 18.7117 14.5467 18.6592C14.4247 18.6068 14.3144 18.5307 14.2221 18.4351L8.56512 12.7781C8.37765 12.5906 8.27233 12.3363 8.27233 12.0711C8.27233 11.806 8.37765 11.5517 8.56512 11.3641L14.2221 5.70714C14.3144 5.61163 14.4247 5.53545 14.5467 5.48304C14.6687 5.43063 14.7999 5.40305 14.9327 5.40189C15.0655 5.40074 15.1972 5.42604 15.3201 5.47632C15.443 5.5266 15.5546 5.60086 15.6485 5.69475C15.7424 5.78864 15.8167 5.90029 15.8669 6.02319C15.9172 6.14609 15.9425 6.27777 15.9414 6.41054C15.9402 6.54332 15.9126 6.67454 15.8602 6.79655C15.8078 6.91855 15.7316 7.0289 15.6361 7.12114L10.6861 12.0711Z" fill="#003C96"/>
</svg>
